# xmcd CD database file
#
# Track frame offsets:
#	150
#	19630
#	42675
#	66520
#	88362
#	103770
#	118325
#	139990
#	165132
#	183557
#	206775
#	238775
#	258370
#	276740
#	295780
#	317260
#	334540
#
# Disc length: 4693 seconds
#
# Revision: 2
# Processed by: cddbd v1.4PL0 Copyright (c) Steve Scherf et al.
# Submitted via: CDex 1.40Beta9
#
DISCID=0c125311
DTITLE=Various Artist - Kontor - Sunset Chill Vol. 2 [CD2)
DYEAR=2002
DGENRE=Chill Out
TTITLE0=ATB - Remember
TTITLE1=Silicone Soul feat. Louise Clare Marshall - Right On! (Original Instrumental Version)
TTITLE2=Bent - Always (Ashley Beedle's Maha Vishnu Remix)
TTITLE3=Kid Loco - Love Me Sweet (St. Etienne Remix)
TTITLE4=Gotan Project - El Capitalismo Foraneo
TTITLE5=Max Melvin - Whatever
TTITLE6=Schiller mit Kim Sanders - Dancing With Loneliness
TTITLE7=Carl Craig - A Wonderful Life
TTITLE8=Rank 1 - Airwave (Sunset Mix)
TTITLE9=Nuyorican Soul - I Am The Black Gold Of The Sun (4 Hero Remix)
TTITLE10=Roy Davis Jr. - Gabrielle
TTITLE11=Collective Sound Members - Honestly For You
TTITLE12=South Street Player - (Who?) Keeps Changing Your Mind (Fresh Fruit Dub)
TTITLE13=Kai Tracid - Life Is Too Short (Orchestra Mix)
TTITLE14=DJ Krush feat. Kazufumi Kodama - Day's End
TTITLE15=Mauro Picotto - Deep Blue
TTITLE16=Omar - Nothing Like This
EXTD=A&R by Jens Thele and Markus Gardeweg\r\nwww.kontor.cc YEAR: 2002
EXTT0=
EXTT1=
EXTT2=
EXTT3=
EXTT4=
EXTT5=
EXTT6=
EXTT7=
EXTT8=
EXTT9=
EXTT10=
EXTT11=
EXTT12=
EXTT13=
EXTT14=
EXTT15=
EXTT16=
PLAYORDER=
